<svg width="13" height="25" viewBox="0 0 13 25" fill="none" xmlns="http://www.w3.org/2000/svg">
<path fill-rule="evenodd" clip-rule="evenodd" d="M3.4794 18.3452C3.4794 16.5895 3.4794 14.8337 3.4794 13.078C3.4794 12.7854 3.42172 12.6684 3.13337 12.7269C2.61433 12.7269 2.03762 12.7269 1.51858 12.7269C1.2879 12.7269 1.23022 12.6684 1.23022 12.4343C1.23022 11.3223 1.23022 10.2689 1.23022 9.1569C1.23022 8.9228 1.2879 8.86428 1.51858 8.86428C2.09529 8.86428 2.61433 8.86428 3.19104 8.86428C3.53707 8.86428 3.59474 8.74723 3.59474 8.45461C3.59474 7.63527 3.59474 6.81593 3.59474 5.93807C3.59474 4.94316 3.88309 3.94825 4.4598 3.12891C5.20952 2.07548 6.30527 1.60728 7.51636 1.54876C8.78512 1.49023 10.0539 1.54876 11.3226 1.49023C11.4957 1.49023 11.5533 1.54876 11.5533 1.72433C11.5533 2.83629 11.5533 3.94825 11.5533 5.06021C11.5533 5.23578 11.4957 5.29431 11.3226 5.29431C10.6883 5.29431 10.1116 5.29431 9.47717 5.29431C8.66978 5.29431 8.15074 5.70398 8.09307 6.52331C8.0354 7.16708 8.09307 7.86937 8.09307 8.51314C8.09307 8.74723 8.20841 8.74723 8.38143 8.74723C9.30416 8.74723 10.2269 8.74723 11.1496 8.74723C11.438 8.74723 11.4957 8.80576 11.4957 9.09838C11.3803 10.2103 11.265 11.3223 11.2073 12.3757C11.2073 12.6098 11.092 12.6684 10.8613 12.6684C10.1115 12.6684 9.36183 12.6684 8.66978 12.6684C8.15074 12.6684 8.20841 12.6098 8.20841 13.1365C8.20841 16.5895 8.20841 19.9839 8.20841 23.4368C8.20841 23.7879 8.09307 23.905 7.74704 23.905C6.47828 23.905 5.20952 23.905 3.94076 23.905C3.59473 23.905 3.53706 23.7879 3.53706 23.4953C3.47939 21.7981 3.4794 20.0424 3.4794 18.3452Z" stroke="#4C75A5" stroke-miterlimit="10" stroke-linecap="round" stroke-linejoin="round"/>
</svg>
