<svg width="23" height="24" viewBox="0 0 23 24" fill="none" xmlns="http://www.w3.org/2000/svg">
<path d="M15.2102 22.5531H7.36699C3.79139 22.5531 0.907837 19.6269 0.907837 15.9984V8.03908C0.907837 4.41058 3.79139 1.48438 7.36699 1.48438H15.2102C18.7858 1.48438 21.6694 4.41058 21.6694 8.03908V15.9984C21.6694 19.6269 18.7858 22.5531 15.2102 22.5531Z" stroke="#4C75A5" stroke-miterlimit="10" stroke-linecap="round" stroke-linejoin="round"/>
<path d="M11.2886 16.7007C13.8367 16.7007 15.9023 14.6045 15.9023 12.0187C15.9023 9.43297 13.8367 7.33679 11.2886 7.33679C8.74054 7.33679 6.67493 9.43297 6.67493 12.0187C6.67493 14.6045 8.74054 16.7007 11.2886 16.7007Z" stroke="#4C75A5" stroke-miterlimit="10" stroke-linecap="round" stroke-linejoin="round"/>
<path d="M17.0557 6.63442C17.4698 6.63442 17.8055 6.29379 17.8055 5.87361C17.8055 5.45342 17.4698 5.11279 17.0557 5.11279C16.6417 5.11279 16.306 5.45342 16.306 5.87361C16.306 6.29379 16.6417 6.63442 17.0557 6.63442Z" stroke="#4C75A5" stroke-miterlimit="10" stroke-linecap="round" stroke-linejoin="round"/>
</svg>
