<svg width="25" height="16" viewBox="0 0 25 16" fill="none" xmlns="http://www.w3.org/2000/svg">
<path d="M12.3992 14.7496H13.7833C13.7833 14.7496 14.187 14.691 14.4177 14.4569C14.5907 14.2228 14.5907 13.8132 14.5907 13.8132C14.5907 13.8132 14.5907 11.8819 15.4558 11.6478C16.3208 11.3552 17.4166 13.462 18.57 14.2814C19.4351 14.9251 20.1271 14.7496 20.1271 14.7496L23.2413 14.691C23.2413 14.691 24.8561 14.574 24.1064 13.2864C24.0487 13.1694 23.645 12.2915 21.7996 10.5358C19.8388 8.66304 20.1271 9.01418 22.434 5.79535C23.8757 3.86406 24.4524 2.63505 24.2794 2.16686C24.1064 1.69866 23.0683 1.81571 23.0683 1.81571H19.5504C19.5504 1.81571 19.262 1.75719 19.089 1.87423C18.916 1.99128 18.8007 2.2839 18.8007 2.2839C18.8007 2.2839 18.224 3.80553 17.4742 5.09306C15.9171 7.78518 15.2827 7.96075 15.0521 7.78518C14.4754 7.37551 14.5907 6.20502 14.5907 5.38569C14.5907 2.7521 14.9944 1.69866 13.841 1.40604C13.4373 1.28899 13.2066 1.23047 12.2262 1.23047C10.9574 1.23047 9.91935 1.23047 9.28497 1.52309C8.88127 1.69866 8.59291 2.16686 8.76593 2.16686C8.99661 2.16686 9.51565 2.34243 9.80401 2.69357C10.15 3.16177 10.15 4.33225 10.15 4.33225C10.15 4.33225 10.3807 7.43403 9.68866 7.78518C9.22729 8.0778 8.53525 7.49256 7.15114 5.03454C6.45909 3.80553 5.88238 2.40095 5.88238 2.40095C5.88238 2.40095 5.82471 2.22538 5.59402 2.10833C5.36334 1.93276 5.07498 1.87423 5.07498 1.87423H1.73007C1.73007 1.87423 1.21103 1.87423 1.03802 2.10833C0.865002 2.2839 1.03802 2.69357 1.03802 2.69357C1.03802 2.69357 3.63321 8.89714 6.6321 12.0574C9.34264 14.9836 12.3992 14.7496 12.3992 14.7496Z" stroke="#4C75A5" stroke-miterlimit="10" stroke-linecap="round" stroke-linejoin="round"/>
</svg>
